<svg width="1440" height="1024" viewBox="0 0 1440 1024" fill="none" xmlns="http://www.w3.org/2000/svg">
<rect x="0.125" y="-1.875" width="205.464" height="205.464" stroke="#F2F2F2" stroke-opacity="0.15" stroke-width="0.25"/>
<rect x="822.982" y="-1.875" width="205.464" height="205.464" stroke="#F2F2F2" stroke-opacity="0.15" stroke-width="0.25"/>
<rect x="411.554" y="-1.875" width="205.464" height="205.464" stroke="#F2F2F2" stroke-opacity="0.15" stroke-width="0.25"/>
<rect x="1234.41" y="-1.875" width="205.464" height="205.464" stroke="#F2F2F2" stroke-opacity="0.15" stroke-width="0.25"/>
<rect x="205.839" y="-1.875" width="205.464" height="205.464" stroke="#F2F2F2" stroke-opacity="0.15" stroke-width="0.25"/>
<rect x="1028.7" y="-1.875" width="205.464" height="205.464" stroke="#F2F2F2" stroke-opacity="0.15" stroke-width="0.25"/>
<rect x="617.268" y="-1.875" width="205.464" height="205.464" stroke="#F2F2F2" stroke-opacity="0.15" stroke-width="0.25"/>
<rect x="0.125" y="203.839" width="205.464" height="205.464" stroke="#F2F2F2" stroke-opacity="0.15" stroke-width="0.25"/>
<rect x="822.982" y="203.839" width="205.464" height="205.464" stroke="#F2F2F2" stroke-opacity="0.15" stroke-width="0.25"/>
<rect x="411.554" y="203.839" width="205.464" height="205.464" stroke="#F2F2F2" stroke-opacity="0.15" stroke-width="0.25"/>
<rect x="1234.41" y="203.839" width="205.464" height="205.464" stroke="#F2F2F2" stroke-opacity="0.15" stroke-width="0.25"/>
<rect x="205.839" y="203.839" width="205.464" height="205.464" stroke="#F2F2F2" stroke-opacity="0.15" stroke-width="0.25"/>
<rect x="1028.7" y="203.839" width="205.464" height="205.464" stroke="#F2F2F2" stroke-opacity="0.15" stroke-width="0.25"/>
<rect x="617.268" y="203.839" width="205.464" height="205.464" stroke="#F2F2F2" stroke-opacity="0.15" stroke-width="0.25"/>
<rect x="0.125" y="409.554" width="205.464" height="205.464" stroke="#F2F2F2" stroke-opacity="0.15" stroke-width="0.25"/>
<rect x="822.982" y="409.554" width="205.464" height="205.464" stroke="#F2F2F2" stroke-opacity="0.15" stroke-width="0.25"/>
<rect x="411.554" y="409.554" width="205.464" height="205.464" stroke="#F2F2F2" stroke-opacity="0.15" stroke-width="0.25"/>
<rect x="1234.41" y="409.554" width="205.464" height="205.464" stroke="#F2F2F2" stroke-opacity="0.15" stroke-width="0.25"/>
<rect x="205.839" y="409.554" width="205.464" height="205.464" stroke="#F2F2F2" stroke-opacity="0.15" stroke-width="0.25"/>
<rect x="1028.7" y="409.554" width="205.464" height="205.464" stroke="#F2F2F2" stroke-opacity="0.15" stroke-width="0.25"/>
<rect x="617.268" y="409.554" width="205.464" height="205.464" stroke="#F2F2F2" stroke-opacity="0.15" stroke-width="0.25"/>
<rect x="0.125" y="615.268" width="205.464" height="205.464" stroke="#F2F2F2" stroke-opacity="0.15" stroke-width="0.25"/>
<rect x="822.982" y="615.268" width="205.464" height="205.464" stroke="#F2F2F2" stroke-opacity="0.15" stroke-width="0.25"/>
<rect x="411.554" y="615.268" width="205.464" height="205.464" stroke="#F2F2F2" stroke-opacity="0.15" stroke-width="0.25"/>
<rect x="1234.41" y="615.268" width="205.464" height="205.464" stroke="#F2F2F2" stroke-opacity="0.15" stroke-width="0.25"/>
<rect x="205.839" y="615.268" width="205.464" height="205.464" stroke="#F2F2F2" stroke-opacity="0.15" stroke-width="0.25"/>
<rect x="1028.7" y="615.268" width="205.464" height="205.464" stroke="#F2F2F2" stroke-opacity="0.15" stroke-width="0.25"/>
<rect x="617.268" y="615.268" width="205.464" height="205.464" stroke="#F2F2F2" stroke-opacity="0.15" stroke-width="0.25"/>
<rect x="0.125" y="820.982" width="205.464" height="205.464" stroke="#F2F2F2" stroke-opacity="0.15" stroke-width="0.25"/>
<rect x="822.982" y="820.982" width="205.464" height="205.464" stroke="#F2F2F2" stroke-opacity="0.15" stroke-width="0.25"/>
<rect x="411.554" y="820.982" width="205.464" height="205.464" stroke="#F2F2F2" stroke-opacity="0.15" stroke-width="0.25"/>
<rect x="1234.41" y="820.982" width="205.464" height="205.464" stroke="#F2F2F2" stroke-opacity="0.15" stroke-width="0.25"/>
<rect x="205.839" y="820.982" width="205.464" height="205.464" stroke="#F2F2F2" stroke-opacity="0.15" stroke-width="0.25"/>
<rect x="1028.7" y="820.982" width="205.464" height="205.464" stroke="#F2F2F2" stroke-opacity="0.15" stroke-width="0.25"/>
<rect x="617.268" y="820.982" width="205.464" height="205.464" stroke="#F2F2F2" stroke-opacity="0.15" stroke-width="0.25"/>
</svg>
